<svg width="1600" height="840" viewBox="0 0 1600 840" fill="none" xmlns="http://www.w3.org/2000/svg">
<g clip-path="url(#clip0_5_2)">
<rect width="1600" height="840" rx="20" fill="black"/>
<path d="M814 418.5C1011.08 418.5 1189.48 364.629 1318.59 277.558C1447.71 190.484 1527.5 70.246 1527.5 -62.5C1527.5 -195.246 1447.71 -315.484 1318.59 -402.558C1189.48 -489.629 1011.08 -543.5 814 -543.5C616.921 -543.5 438.521 -489.629 309.405 -402.558C180.287 -315.484 100.5 -195.246 100.5 -62.5C100.5 70.246 180.287 190.484 309.405 277.558C438.521 364.629 616.921 418.5 814 418.5Z" stroke="url(#paint0_linear_5_2)" stroke-opacity="0.5"/>
<g filter="url(#filter0_f_5_2)">
<rect x="1053" y="493" width="652" height="430" rx="215" fill="#00EFE1" fill-opacity="0.8"/>
</g>
<path d="M1579.89 568.192L1577.81 566.113C1577.73 566.034 1577.63 566 1577.53 566C1577.43 566 1577.33 566.039 1577.25 566.113L1573.52 569.845C1571.9 568.745 1569.98 568.159 1568.02 568.163C1565.51 568.163 1563 569.119 1561.09 571.036L1556.09 576.033C1556.02 576.107 1555.98 576.206 1555.98 576.31C1555.98 576.414 1556.02 576.513 1556.09 576.587L1569.41 589.911C1569.49 589.989 1569.59 590.024 1569.69 590.024C1569.79 590.024 1569.89 589.984 1569.97 589.911L1574.96 584.914C1578.34 581.53 1578.74 576.298 1576.16 572.483L1579.89 568.751C1580.04 568.594 1580.04 568.344 1579.89 568.192ZM1563.28 587.704C1563.2 587.631 1563.1 587.59 1563 587.59C1562.9 587.59 1562.8 587.631 1562.72 587.704L1559.46 590.97L1555.03 586.542L1558.3 583.271C1558.45 583.119 1558.45 582.869 1558.3 582.717L1556.52 580.932C1556.44 580.859 1556.34 580.818 1556.24 580.818C1556.14 580.818 1556.04 580.859 1555.96 580.932L1552.69 584.203L1550.59 582.094C1550.55 582.058 1550.5 582.029 1550.46 582.009C1550.41 581.99 1550.36 581.98 1550.31 581.981C1550.21 581.981 1550.1 582.021 1550.03 582.094L1545.04 587.091C1541.66 590.47 1541.26 595.707 1543.84 599.522L1540.11 603.254C1540.04 603.328 1540 603.427 1540 603.531C1540 603.635 1540.04 603.734 1540.11 603.808L1542.19 605.887C1542.27 605.966 1542.37 606 1542.47 606C1542.57 606 1542.67 605.961 1542.75 605.887L1546.48 602.155C1548.13 603.278 1550.06 603.837 1551.98 603.837C1554.49 603.837 1557 602.881 1558.91 600.964L1563.91 595.967C1564.06 595.815 1564.06 595.565 1563.91 595.413L1561.8 593.304L1565.07 590.033C1565.22 589.881 1565.22 589.631 1565.07 589.479L1563.28 587.704Z" fill="white" fill-opacity="0.6"/>
<g filter="url(#filter1_f_5_2)">
<rect x="-227" y="-240" width="862" height="733" rx="366.5" fill="#000AF7" fill-opacity="0.64"/>
</g>
<path d="M805 433.5C993.25 433.5 1163.66 481.387 1286.98 558.782C1410.31 636.182 1486.5 743.045 1486.5 861C1486.5 978.955 1410.31 1085.82 1286.98 1163.22C1163.66 1240.61 993.25 1288.5 805 1288.5C616.75 1288.5 446.345 1240.61 323.019 1163.22C199.686 1085.82 123.5 978.955 123.5 861C123.5 743.045 199.686 636.182 323.019 558.782C446.345 481.387 616.75 433.5 805 433.5Z" stroke="url(#paint1_linear_5_2)" stroke-opacity="0.5"/>
<path d="M807.5 419.5C1067.98 419.5 1303.79 468.179 1474.45 546.862C1645.15 625.565 1750.5 734.191 1750.5 854C1750.5 973.809 1645.15 1082.44 1474.45 1161.14C1303.79 1239.82 1067.98 1288.5 807.5 1288.5C547.015 1288.5 311.214 1239.82 140.554 1161.14C-30.1494 1082.44 -135.5 973.809 -135.5 854C-135.5 734.191 -30.1494 625.565 140.554 546.862C311.214 468.179 547.015 419.5 807.5 419.5Z" stroke="url(#paint2_linear_5_2)" stroke-opacity="0.5"/>
<g clip-path="url(#clip1_5_2)">
<path d="M1118.38 480.467V473.208C1118.38 471.482 1119.77 470.083 1121.5 470.083C1123.23 470.083 1124.62 471.482 1124.62 473.208V474.253" stroke="white" stroke-opacity="0.5" stroke-width="4" stroke-linecap="round"/>
<path d="M1124.62 480.502V487.792C1124.62 489.517 1123.23 490.917 1121.5 490.917C1119.77 490.917 1118.38 489.517 1118.38 487.792V486.734" stroke="white" stroke-opacity="0.5" stroke-width="4" stroke-linecap="round"/>
<path d="M1121.5 483.625H1114.2C1112.48 483.625 1111.08 482.226 1111.08 480.5C1111.08 478.774 1112.48 477.375 1114.2 477.375H1115.24" stroke="white" stroke-opacity="0.5" stroke-width="4" stroke-linecap="round"/>
<path d="M1121.5 477.375H1128.79C1130.51 477.375 1131.92 478.774 1131.92 480.5C1131.92 482.226 1130.51 483.625 1128.79 483.625H1127.78" stroke="white" stroke-opacity="0.5" stroke-width="4" stroke-linecap="round"/>
</g>
<path d="M153.752 753.866C153.157 753.795 152.534 753.704 152.367 753.663C152.121 753.604 151.873 753.552 151.625 753.507C151.341 753.452 151.059 753.386 150.78 753.309C149.485 752.938 149.392 752.908 148.415 752.509C147.517 752.143 145.862 751.289 145.296 750.9C145.141 750.792 144.996 750.706 144.974 750.706C144.952 750.706 144.589 750.451 144.168 750.14C141.49 748.16 139.48 745.756 138.027 742.796C137.777 742.288 137.573 741.836 137.573 741.794C137.573 741.752 137.528 741.636 137.473 741.539C137.36 741.336 137.198 740.9 137.068 740.449C137.012 740.257 136.947 740.069 136.873 739.883C136.812 739.74 136.763 739.565 136.763 739.494C136.763 739.423 136.702 739.193 136.627 738.981C136.553 738.77 136.493 738.521 136.493 738.428C136.493 738.336 136.435 738.016 136.362 737.718C136.187 736.981 136 735.073 136 734.004C136 732.935 136.187 731.027 136.362 730.291C136.434 729.992 136.493 729.667 136.493 729.567C136.493 729.467 136.538 729.27 136.593 729.13C136.649 728.99 136.721 728.739 136.754 728.572C136.789 728.405 136.867 728.117 136.93 727.93L137.115 727.391C137.25 726.988 137.375 726.646 137.435 726.513C137.47 726.439 137.604 726.136 137.734 725.839C137.946 725.36 138.398 724.456 138.663 723.983C138.76 723.81 138.796 723.753 139.319 722.937C140.146 721.642 141.561 720.031 142.878 718.883C143.342 718.478 144.892 717.303 144.961 717.303C144.981 717.303 145.127 717.215 145.287 717.108C145.708 716.826 146.121 716.587 146.659 716.318C146.852 716.222 147.044 716.123 147.233 716.02C147.322 715.969 147.489 715.892 148.347 715.508C148.536 715.424 148.74 715.347 149.327 715.142C149.457 715.097 149.717 715.002 149.902 714.932C150.089 714.863 150.309 714.805 150.391 714.805C150.471 714.805 150.683 714.749 150.862 714.68C151.04 714.61 151.363 714.531 151.582 714.504C151.799 714.479 152.088 714.418 152.224 714.37C152.358 714.324 152.727 714.264 153.043 714.237C153.455 714.2 153.865 714.152 154.274 714.092C155.114 713.969 156.94 713.969 157.771 714.092C158.164 714.149 158.558 714.195 158.953 714.231C159.251 714.256 159.63 714.318 159.797 714.369C159.965 714.419 160.254 714.481 160.439 714.504C160.625 714.529 160.938 714.606 161.134 714.676C161.331 714.748 161.554 714.805 161.631 714.805C161.707 714.805 161.866 714.848 161.982 714.902C162.099 714.954 162.347 715.042 162.534 715.097C162.72 715.153 163.038 715.264 163.243 715.346C163.447 715.427 163.72 715.535 163.851 715.583C164.092 715.674 165.869 716.563 166.111 716.714C168.074 717.937 169.083 718.735 170.441 720.136C172.078 721.826 173.164 723.436 174.27 725.805C174.348 725.972 174.467 726.22 174.536 726.354C174.603 726.489 174.659 726.648 174.659 726.706C174.659 726.766 174.715 726.944 174.785 727.102C174.973 727.534 175.134 728.025 175.21 728.401C175.247 728.585 175.317 728.813 175.364 728.907C175.412 729.001 175.468 729.239 175.49 729.434C175.512 729.629 175.577 729.948 175.632 730.142C175.951 731.244 176.109 734.491 175.916 735.928C175.859 736.354 175.794 736.87 175.772 737.074C175.736 737.422 175.551 738.324 175.394 738.93L175.231 739.571C174.925 740.806 174.168 742.566 173.244 744.193C172.878 744.84 171.65 746.587 171.419 746.792C171.398 746.81 171.294 746.932 171.189 747.061C171.084 747.192 170.747 747.556 170.442 747.871C169.098 749.257 168.014 750.114 166.111 751.295C165.886 751.435 163.972 752.369 163.614 752.514C163.428 752.588 163.119 752.714 162.926 752.792C162.734 752.869 162.52 752.934 162.453 752.935C162.386 752.936 162.209 752.996 162.06 753.067C161.911 753.139 161.722 753.199 161.638 753.2C161.555 753.202 161.312 753.26 161.098 753.331C160.885 753.403 160.588 753.48 160.439 753.503C160.29 753.526 159.972 753.589 159.73 753.643C159.489 753.697 158.758 753.802 158.109 753.876C156.662 754.045 155.199 754.041 153.752 753.866ZM155.222 749.964C155.315 749.891 155.412 749.746 155.438 749.644C155.494 749.418 164.572 731.237 164.743 731.009C164.887 730.816 164.901 730.508 164.769 730.399C164.699 730.341 163.83 730.322 161.51 730.326C159.769 730.33 158.306 730.331 158.258 730.33C158.188 730.327 158.173 729.166 158.18 724.189C158.185 720.813 158.169 718.02 158.145 717.981C158.12 717.942 158.025 717.91 157.932 717.91C157.802 717.91 157.741 717.966 157.66 718.162C157.509 718.527 157.09 719.355 155.052 723.308C154.629 724.128 154.206 724.949 153.785 725.771C153.424 726.477 152.854 727.585 152.52 728.234C151.623 729.976 150.727 731.72 149.834 733.465C148.292 736.473 148.106 736.831 148.04 736.911C147.911 737.065 147.842 737.422 147.914 737.557C147.98 737.68 148.111 737.685 151.365 737.68C153.225 737.677 154.759 737.687 154.775 737.702C154.818 737.746 154.802 749.348 154.758 749.624C154.729 749.806 154.748 749.902 154.831 749.985C154.975 750.129 155.014 750.128 155.222 749.964Z" fill="white" fill-opacity="0.6"/>
</g>
<path d="M536.6 423C536.6 409.267 539.6 397 545.6 386.2C551.6 375.267 559.8 366.8 570.2 360.8C580.6 354.667 592.2 351.6 605 351.6C620.6 351.6 633.933 355.333 645 362.8C656.2 370.133 664.333 380.533 669.4 394H653C649 384.533 642.867 377.133 634.6 371.8C626.467 366.467 616.6 363.8 605 363.8C594.733 363.8 585.467 366.2 577.2 371C569.067 375.8 562.667 382.733 558 391.8C553.333 400.733 551 411.133 551 423C551 434.867 553.333 445.267 558 454.2C562.667 463.133 569.067 470 577.2 474.8C585.467 479.6 594.733 482 605 482C616.6 482 626.467 479.4 634.6 474.2C642.867 468.867 649 461.533 653 452.2H669.4C664.333 465.533 656.2 475.867 645 483.2C633.8 490.533 620.467 494.2 605 494.2C592.2 494.2 580.6 491.2 570.2 485.2C559.8 479.067 551.6 470.6 545.6 459.8C539.6 449 536.6 436.733 536.6 423ZM771.697 493L737.097 434.6H711.297V493H697.297V353.2H739.297C754.897 353.2 766.697 356.933 774.697 364.4C782.83 371.867 786.897 381.667 786.897 393.8C786.897 403.933 783.964 412.6 778.097 419.8C772.364 426.867 763.83 431.467 752.497 433.6L788.497 493H771.697ZM711.297 423.2H739.497C750.43 423.2 758.63 420.533 764.097 415.2C769.697 409.867 772.497 402.733 772.497 393.8C772.497 384.6 769.83 377.533 764.497 372.6C759.164 367.533 750.764 365 739.297 365H711.297V423.2ZM828.08 353.2V441.2C828.08 455.067 831.346 465.333 837.88 472C844.546 478.667 853.613 482 865.08 482C876.546 482 885.48 478.733 891.88 472.2C898.413 465.533 901.68 455.2 901.68 441.2V353.2H915.68V441C915.68 458.733 910.946 472.067 901.48 481C892.146 489.933 879.946 494.4 864.88 494.4C849.813 494.4 837.546 489.933 828.08 481C818.746 472.067 814.08 458.733 814.08 441V353.2H828.08ZM988.306 353.2C1003.77 353.2 1017.04 356 1028.11 361.6C1039.17 367.2 1047.64 375.267 1053.51 385.8C1059.37 396.333 1062.31 408.867 1062.31 423.4C1062.31 437.8 1059.37 450.267 1053.51 460.8C1047.64 471.2 1039.17 479.2 1028.11 484.8C1017.04 490.267 1003.77 493 988.306 493H946.906V353.2H988.306ZM988.306 481.4C1007.77 481.4 1022.57 476.333 1032.71 466.2C1042.97 455.933 1048.11 441.667 1048.11 423.4C1048.11 405 1042.97 390.667 1032.71 380.4C1022.57 370 1007.77 364.8 988.306 364.8H960.906V481.4H988.306Z" fill="url(#paint3_linear_5_2)"/>
<defs>
<filter id="filter0_f_5_2" x="653" y="93" width="1452" height="1230" filterUnits="userSpaceOnUse" color-interpolation-filters="sRGB">
<feFlood flood-opacity="0" result="BackgroundImageFix"/>
<feBlend mode="normal" in="SourceGraphic" in2="BackgroundImageFix" result="shape"/>
<feGaussianBlur stdDeviation="200" result="effect1_foregroundBlur_5_2"/>
</filter>
<filter id="filter1_f_5_2" x="-527" y="-540" width="1462" height="1333" filterUnits="userSpaceOnUse" color-interpolation-filters="sRGB">
<feFlood flood-opacity="0" result="BackgroundImageFix"/>
<feBlend mode="normal" in="SourceGraphic" in2="BackgroundImageFix" result="shape"/>
<feGaussianBlur stdDeviation="150" result="effect1_foregroundBlur_5_2"/>
</filter>
<linearGradient id="paint0_linear_5_2" x1="814" y1="419" x2="814" y2="-544" gradientUnits="userSpaceOnUse">
<stop stop-color="white"/>
<stop offset="1" stop-color="white" stop-opacity="0"/>
</linearGradient>
<linearGradient id="paint1_linear_5_2" x1="805" y1="433" x2="805" y2="1289" gradientUnits="userSpaceOnUse">
<stop stop-color="white"/>
<stop offset="1" stop-color="white" stop-opacity="0"/>
</linearGradient>
<linearGradient id="paint2_linear_5_2" x1="807.5" y1="419" x2="807.5" y2="1289" gradientUnits="userSpaceOnUse">
<stop stop-color="white"/>
<stop offset="1" stop-color="white" stop-opacity="0"/>
</linearGradient>
<linearGradient id="paint3_linear_5_2" x1="800" y1="273" x2="800" y2="566" gradientUnits="userSpaceOnUse">
<stop offset="0.489741" stop-color="white"/>
<stop offset="0.651908" stop-color="white" stop-opacity="0.38"/>
<stop offset="0.78125" stop-color="white" stop-opacity="0"/>
</linearGradient>
<clipPath id="clip0_5_2">
<rect width="1600" height="840" rx="20" fill="white"/>
</clipPath>
<clipPath id="clip1_5_2">
<rect width="25" height="25" fill="white" transform="translate(1109 468)"/>
</clipPath>
</defs>
</svg>
